HIERARCHY
ROOT Hips
{
	OFFSET -3.958830 18.904000 13.208200
	CHANNELS 6 Xposition Yposition Zposition Zrotation Yrotation Xrotation 
	JOINT LHipJoint
	{
		OFFSET 0.000000 0.000000 0.000000
		CHANNELS 3 Zrotation Yrotation Xrotation
		JOINT LeftUpLeg
		{
			OFFSET 1.800000 -1.400000 0.085000
			CHANNELS 3 Zrotation Yrotation Xrotation
			JOINT LeftLeg
			{
				OFFSET 2.215000 -6.000000 0.000000
				CHANNELS 3 Zrotation Yrotation Xrotation
				JOINT LeftFoot
				{
					OFFSET 2.500000 -6.900000 0.000000
					CHANNELS 3 Zrotation Yrotation Xrotation
					JOINT LeftToeBase
					{
						OFFSET 0.200000 -0.500000 1.950000
						CHANNELS 3 Zrotation Yrotation Xrotation
						End Site
						{
							OFFSET 0.000000 0.000000 0.000000
						}
					}
				}
			}
		}
	}
	JOINT RHipJoint
	{
		OFFSET 0.000000 0.000000 0.000000
		CHANNELS 3 Zrotation Yrotation Xrotation
		JOINT RightUpLeg
		{
			OFFSET -1.800000 -1.400000 0.085000
			CHANNELS 3 Zrotation Yrotation Xrotation
			JOINT RightLeg
			{
				OFFSET -2.215000 -6.000000 0.000000
				CHANNELS 3 Zrotation Yrotation Xrotation
				JOINT RightFoot
				{
					OFFSET -2.500000 -6.900000 0.000000
					CHANNELS 3 Zrotation Yrotation Xrotation
					JOINT RightToeBase
					{
						OFFSET -0.200000 -0.500000 1.950000
						CHANNELS 3 Zrotation Yrotation Xrotation
						End Site
						{
							OFFSET 0.000000 0.000000 0.000000
						}
					}
				}
			}
		}
	}
	JOINT LowerBack
	{
		OFFSET 0.000000 0.000000 0.000000
		CHANNELS 3 Zrotation Yrotation Xrotation
		JOINT Spine
		{
			OFFSET -0.087000 1.940000 -0.288900
			CHANNELS 3 Zrotation Yrotation Xrotation
			JOINT Spine1
			{
				OFFSET 0.000000 1.950000 0.060000
				CHANNELS 3 Zrotation Yrotation Xrotation
				JOINT Neck
				{
					OFFSET 0.000000 0.000000 0.000000
					CHANNELS 3 Zrotation Yrotation Xrotation
					JOINT Neck1
					{
						OFFSET 0.000000 1.600000 0.340000
						CHANNELS 3 Zrotation Yrotation Xrotation
						JOINT Head
						{
							OFFSET 0.000000 1.667000 -0.240000
							CHANNELS 3 Zrotation Yrotation Xrotation
							End Site
							{
								OFFSET 0.000000 0.000000 0.000000
							}
						}
					}
				}
				JOINT LeftShoulder
				{
					OFFSET 0.000000 0.000000 0.000000
					CHANNELS 3 Zrotation Yrotation Xrotation
					JOINT LeftArm
					{
						OFFSET 2.700000 1.550000 -0.730000
						CHANNELS 3 Zrotation Yrotation Xrotation
						JOINT LeftForeArm
						{
							OFFSET 5.450000 0.000000 0.000000
							CHANNELS 3 Zrotation Yrotation Xrotation
							JOINT LeftHand
							{
								OFFSET 3.450000 0.000000 0.000000
								CHANNELS 3 Zrotation Yrotation Xrotation
								JOINT LeftHandIndex1
								{
									OFFSET 0.750000 0.000000 0.000000
									CHANNELS 3 Zrotation Yrotation Xrotation
									End Site
									{
										OFFSET 0.000000 0.000000 0.000000
									}
								}
							}
						}
					}
				}
				JOINT RightShoulder
				{
					OFFSET 0.000000 0.000000 0.000000
					CHANNELS 3 Zrotation Yrotation Xrotation
					JOINT RightArm
					{
						OFFSET -2.700000 1.550000 -0.730000
						CHANNELS 3 Zrotation Yrotation Xrotation
						JOINT RightForeArm
						{
							OFFSET -5.450000 0.000000 0.000000
							CHANNELS 3 Zrotation Yrotation Xrotation
							JOINT RightHand
							{
								OFFSET -3.450000 0.000000 0.000000
								CHANNELS 3 Zrotation Yrotation Xrotation
								JOINT RightHandIndex1
								{
									OFFSET -0.750000 0.000000 0.000000
									CHANNELS 3 Zrotation Yrotation Xrotation
									End Site
									{
										OFFSET 0.000000 0.000000 0.000000
									}
								}
							}
						}
					}
				}
			}
		}
	}
}
MOTION
Frames: 11
Frame Time: 0.016667
0.371350 17.507890 -0.412980 -31.752987 29.656981 -21.713113 -15.102820 10.361221 1.960844 26.376458 1.581145 -28.079954 -1.443575 9.714630 31.119781 -0.773419 7.082668 1.919293 0.377400 -0.015340 0.083200 19.157105 -6.900509 6.953259 -22.210842 24.151128 -72.052371 54.297607 -47.706768 61.391600 -3.699891 -16.052197 -0.312698 0.190090 0.390410 -0.007510 -5.236808 -0.322204 -9.983678 20.338239 -14.045257 56.851008 -13.517640 0.263378 11.239390 0.355069 -13.912047 -12.597781 -32.295510 3.507784 38.002282 12.763080 -13.350950 -27.658250 -13.322252 -18.106298 3.916576 -23.862134 -8.300936 -11.166520 44.272073 -35.044442 -16.932083 -3.356976 2.357694 0.982680 -0.192660 -0.033230 0.199610 13.210623 28.162856 9.851362 32.953654 11.438064 -19.334324 -34.511201 48.535472 -16.522501 1.471308 -0.862691 -0.516030 0.762460 0.264660 -0.172250 
0.310690 17.438060 -0.493600 -31.811432 30.157353 -21.907632 -15.168169 10.197181 2.081323 25.872075 1.225492 -30.552112 -0.371597 9.926943 34.185217 -0.767609 7.462654 1.798178 0.391880 0.025480 0.106400 19.166458 -6.570352 7.168983 -24.582903 23.856085 -77.408812 55.305774 -47.718398 61.109628 -3.726196 -16.120538 -0.310623 0.233080 0.431420 -0.000240 -5.092881 -0.570997 -10.119527 18.079968 -13.605123 59.374229 -12.696000 0.305356 12.716550 0.262506 -13.053177 -12.852664 -28.757801 2.293017 35.907933 11.418560 -12.126880 -27.740840 -9.983313 -19.812561 4.461728 -19.932359 -8.007074 -11.189525 44.729486 -32.457558 -16.010860 -3.434645 2.349607 0.970600 -0.144360 -0.029540 0.209140 10.214129 29.403194 9.808604 28.953778 13.016165 -18.287195 -34.995484 44.963479 -15.433966 1.459913 -0.919835 -0.537100 0.819800 0.263140 -0.174200 
0.292440 17.369340 -0.545040 -32.135130 28.848296 -22.082876 -15.173022 9.962946 2.199018 26.735847 1.584966 -31.800977 0.154026 10.594870 36.809317 -0.661959 7.936205 1.615396 0.389110 0.049130 0.087850 19.230584 -6.335568 7.329889 -26.799023 23.918605 -81.852360 59.266079 -48.685091 58.963060 -3.738726 -16.051153 -0.272836 0.237370 0.434730 0.006440 -5.068119 -0.517202 -10.252988 17.580548 -13.286574 60.940196 -13.032131 1.002564 12.889105 0.395676 -12.633395 -13.359924 -27.480863 2.270852 34.982981 11.452780 -11.436260 -26.922530 -8.535328 -20.604083 4.636234 -17.063166 -7.202936 -11.407385 44.416805 -32.546603 -15.641010 -3.455733 2.386088 0.931830 -0.124420 -0.035610 0.207050 8.534653 30.090203 10.126401 26.594923 13.115199 -17.218943 -34.484401 41.400928 -13.842590 1.504398 -1.015521 -0.511950 0.797100 0.261390 -0.160550 
0.290490 17.331610 -0.565280 -32.188281 27.797572 -22.755053 -15.179776 9.921910 2.230653 27.321937 2.041512 -31.873028 0.463882 11.123811 38.526331 -0.536128 8.230331 1.507917 0.399110 0.071780 0.075790 19.244421 -6.227455 7.385673 -27.693099 24.574541 -83.712574 60.200388 -50.002529 59.573124 -3.837852 -16.315136 -0.306534 0.220960 0.412030 0.009760 -5.024391 -0.567081 -10.313572 16.966576 -12.742124 62.817403 -12.885900 1.416943 12.315008 0.364293 -12.618056 -14.031951 -27.883475 2.861730 34.847477 12.575640 -11.077830 -26.588100 -8.331121 -21.263803 4.845302 -14.911570 -6.136684 -11.610608 43.856089 -32.451261 -15.092872 -3.428670 2.449868 0.914920 -0.143190 -0.021880 0.220310 8.454671 30.791793 10.550729 24.718286 12.438048 -16.744046 -34.185433 39.291473 -12.791188 1.570200 -1.087624 -0.471910 0.755030 0.234530 -0.141770 
0.305540 17.318700 -0.565630 -31.934581 26.343928 -23.253989 -15.139643 9.857444 2.219166 28.109749 2.717287 -31.127765 0.223073 11.788980 39.422843 -0.447420 8.488638 1.403476 0.400090 0.081580 0.048810 19.285384 -6.298460 7.348574 -27.701453 25.804905 -83.516116 59.439454 -51.022458 61.260859 -3.937028 -16.684948 -0.380725 0.212540 0.408110 0.015080 -5.116135 -0.286758 -10.326004 17.385261 -12.410027 63.649285 -13.592419 2.003933 11.951565 0.173547 -12.729565 -14.320136 -28.519172 3.261884 34.806319 14.464170 -11.292900 -26.885640 -8.540306 -21.461575 4.751653 -13.581002 -5.821071 -11.666397 42.556920 -33.348528 -14.761592 -3.399076 2.469750 0.907590 -0.160430 -0.016190 0.224640 9.041888 30.988502 10.890241 24.845278 11.453101 -16.996123 -35.168878 38.970073 -12.981652 1.602380 -1.111148 -0.446860 0.734180 0.234370 -0.119920 
0.311660 17.309200 -0.537730 -31.824504 26.464498 -23.854414 -15.132388 9.938988 2.174373 27.973014 2.817767 -30.883542 0.935448 11.751841 40.287065 -0.409709 8.558663 1.386776 0.391020 0.094010 0.008430 19.265304 -6.402109 7.243643 -26.774493 26.110840 -81.134422 55.966583 -52.191818 65.099413 -4.055447 -17.260770 -0.481612 0.216790 0.440760 0.002830 -5.134770 -0.265383 -10.288354 17.560576 -12.038952 63.166233 -13.155179 1.947269 11.776902 -0.352152 -12.637011 -14.221122 -28.750532 4.079566 35.238214 15.913540 -11.123010 -26.505550 -9.461678 -21.414497 4.725129 -13.269404 -5.817877 -11.306812 40.910764 -33.085881 -13.978957 -3.407260 2.455624 0.891510 -0.149660 -0.027740 0.239940 10.949107 30.490785 10.919408 25.034607 10.516093 -16.825063 -34.689024 38.889412 -12.675402 1.613004 -1.092305 -0.446230 0.755620 0.239460 -0.096120 
0.346390 17.315710 -0.499030 -31.553057 25.790424 -24.866642 -15.124887 10.161895 2.090034 28.417409 3.305086 -29.150123 0.889599 11.936645 40.130938 -0.327500 8.556632 1.396261 0.402880 0.115480 0.002740 19.213369 -6.572250 7.073223 -24.612863 27.441072 -77.184125 50.195487 -52.779461 70.840290 -4.240910 -18.060902 -0.631599 0.200870 0.431040 0.004230 -5.099997 -0.335316 -10.204782 17.818231 -11.437274 62.916426 -12.732498 2.006994 10.859143 -0.478868 -12.677832 -14.232585 -29.933335 5.207883 36.488624 16.976720 -10.974380 -25.946660 -11.714059 -21.136452 4.562802 -12.826010 -5.555737 -10.801121 37.766454 -33.181348 -12.668235 -3.378539 2.473156 0.880640 -0.165410 -0.010980 0.259150 13.373514 30.061241 11.030629 24.425813 9.210176 -16.414033 -30.522078 39.735791 -11.057090 1.634628 -1.087536 -0.412800 0.735700 0.211900 -0.075310 
0.385290 17.339880 -0.428750 -31.345769 25.531585 -26.267876 -15.131458 10.468150 1.951703 28.812288 3.599296 -26.836086 1.081649 11.812381 39.562618 -0.322756 8.438820 1.406137 0.447060 0.164000 0.041450 19.132319 -6.773610 6.890994 -21.889143 28.114318 -72.253689 44.462012 -53.296489 76.692340 -4.425402 -18.807101 -0.796417 0.215340 0.373140 0.014310 -5.026232 -0.485082 -10.091907 17.538913 -10.517812 61.731828 -12.089173 2.226316 11.782223 -0.346508 -12.161832 -14.587938 -29.606137 5.857734 38.948244 17.547570 -10.366680 -26.170630 -11.997098 -21.154004 4.826674 -15.194431 -5.009612 -10.851138 37.061201 -31.993348 -12.307238 -3.339019 2.516998 0.909850 -0.201300 0.032790 0.253580 13.427720 30.039648 11.506475 26.694270 8.342611 -15.762585 -27.041956 37.450027 -9.394633 1.658145 -1.115125 -0.385580 0.701310 0.186490 -0.089390 
0.465650 17.366780 -0.357330 -31.695490 25.823419 -27.950374 -15.120222 10.738976 1.803485 28.995722 3.531532 -24.617539 1.455756 11.515619 39.266206 -0.383598 8.353097 1.409738 0.481530 0.193290 0.118370 19.063776 -7.027664 6.674204 -19.074406 27.362661 -66.044603 34.692119 -53.741704 86.590492 -4.689782 -19.966244 -1.038531 0.239280 0.328060 0.013700 -5.032991 -0.527677 -9.955830 18.523930 -10.780003 59.128357 -12.546507 1.715559 13.147456 0.272683 -11.336700 -14.795462 -28.728102 7.199707 42.706821 16.883660 -8.835910 -26.615310 -12.349549 -21.115076 5.142229 -17.878269 -3.939679 -10.788825 35.178291 -30.826375 -11.572973 -3.328292 2.465025 0.980650 -0.228240 0.087460 0.226010 12.590545 29.436805 11.798710 30.996156 8.591905 -13.295524 -24.218269 30.070212 -7.058055 1.730526 -1.068986 -0.404520 0.725670 0.181410 -0.132690 
0.548540 17.378960 -0.276400 -31.291809 26.710315 -27.986441 -15.126933 11.034132 1.765387 27.998513 3.129972 -23.947191 1.768178 11.160746 39.367351 -0.448550 8.258070 1.415269 0.467560 0.151440 0.144310 18.982282 -7.304456 6.422959 -15.944961 25.702244 -58.935590 23.528313 -50.251705 95.686407 -4.728436 -20.442833 -1.161085 0.217390 0.303790 0.027180 -4.992300 -0.691942 -9.818048 18.847758 -10.173937 55.407010 -12.527901 1.343008 12.123980 0.659599 -10.574629 -14.488526 -28.064021 8.625865 47.162172 16.663400 -7.893840 -25.815200 -14.430496 -19.791705 4.972617 -20.837507 -2.841668 -10.292061 31.613062 -30.618567 -10.424717 -3.340003 2.417186 1.040280 -0.232200 0.105150 0.188110 13.766066 27.724046 11.549749 34.957860 8.153210 -11.213037 -20.697724 24.899176 -5.089030 1.795336 -0.987293 -0.424650 0.708490 0.207510 -0.176790 
0.606120 17.384730 -0.176440 -30.573042 26.966493 -27.591414 -15.169461 11.374709 1.864006 27.726649 2.891368 -23.368555 1.764253 11.181103 39.754285 -0.489869 8.375949 1.382223 0.372070 -0.016500 0.169840 18.874712 -7.562299 6.105011 -12.172475 24.052487 -52.212173 13.859356 -44.695382 102.243100 -4.573217 -20.084589 -1.127134 0.132310 0.314630 0.026740 -4.803775 -1.059710 -9.712032 17.703848 -8.411383 52.152274 -11.377357 1.506587 9.123020 0.791494 -9.632465 -13.908401 -26.695789 9.629548 52.012960 15.776860 -6.894780 -24.113180 -16.303832 -16.823958 4.428329 -25.500599 -1.057337 -10.144284 28.205752 -31.653524 -9.661173 -3.377739 2.293881 1.126760 -0.221140 0.101930 0.129420 15.108021 24.650556 10.996576 40.098997 5.212425 -11.292951 -17.042563 24.053339 -3.964092 1.812430 -0.840970 -0.504260 0.721210 0.265730 -0.246090 
